<svg xmlns="http://www.w3.org/2000/svg" width="1400" height="700" viewBox="0 0 1400 700" font-family="-apple-system, BlinkMacSystemFont, 'Apple SD Gothic Neo', 'Segoe UI', 'Noto Sans KR', sans-serif">
  <defs>
    <marker id="ar" viewBox="0 0 10 10" refX="9" refY="5" markerWidth="7" markerHeight="7" orient="auto-start-reverse">
      <path d="M0,0 L10,5 L0,10 z" fill="#9aa3ad"/>
    </marker>

    <!-- GitHub mark -->
    <symbol id="gh" viewBox="0 0 24 24">
      <path fill="#1b1f24" d="M12 .5C5.7.5.6 5.6.6 11.9c0 5 3.3 9.3 7.8 10.8.6.1.8-.2.8-.6v-2c-3.2.7-3.9-1.5-3.9-1.5-.5-1.3-1.3-1.7-1.3-1.7-1-.7.1-.7.1-.7 1.1.1 1.7 1.2 1.7 1.2 1 1.8 2.7 1.3 3.4 1 .1-.7.4-1.3.7-1.6-2.6-.3-5.3-1.3-5.3-5.8 0-1.3.5-2.3 1.2-3.2-.1-.3-.5-1.5.1-3.1 0 0 1-.3 3.3 1.2a11 11 0 0 1 6 0C17.5 4.4 18.5 4.7 18.5 4.7c.6 1.6.2 2.8.1 3.1.8.9 1.2 1.9 1.2 3.2 0 4.5-2.7 5.5-5.3 5.8.4.4.8 1.1.8 2.2v3.3c0 .4.2.7.8.6 4.5-1.5 7.8-5.8 7.8-10.8C23.4 5.6 18.3.5 12 .5z"/>
    </symbol>

    <!-- Docker whale -->
    <symbol id="docker" viewBox="0 0 32 24">
      <g fill="#2496ed">
        <rect x="7" y="10" width="4" height="4" rx=".4"/><rect x="11.5" y="10" width="4" height="4" rx=".4"/>
        <rect x="16" y="10" width="4" height="4" rx=".4"/><rect x="11.5" y="5.5" width="4" height="4" rx=".4"/>
        <rect x="16" y="5.5" width="4" height="4" rx=".4"/><rect x="16" y="1" width="4" height="4" rx=".4"/>
        <path d="M30.5 11.4c-1.2-.8-3.9-1.1-6-.7-.3-1.9-1.4-3.6-3.3-5.1l-.7-.5-.5.7c-.9 1.4-1.2 3.6-.3 5.2H1.2c-.5 0-.9.4-.9.9-.1 2.9.4 5.8 2.1 8 1.6 2 4.1 3 7.4 3 7.2 0 12.5-3.3 15-9.3 1 0 3.1 0 4.2-2.1.1-.2.4-.7.5-.9l.2-.5-.6-.4a1 1 0 0 0-.6-.3z"/>
      </g>
    </symbol>

    <!-- Spring leaf -->
    <symbol id="spring" viewBox="0 0 24 24">
      <circle cx="12" cy="12" r="11.5" fill="#6db33f"/>
      <path fill="#fff" d="M18.4 4.6c-.3.7-.7 1.3-1.1 1.9a9.4 9.4 0 1 0-1.3 14.1c.2-.2.1-.5-.2-.4a10 10 0 0 1-8.6-.6c2.6.3 5.2-.4 7.2-2 2.7-2 3.4-5.4 4-8.6.1-.6.2-1.3 0-1.9-.1-.8-.5-1.5-.9-2.2l.9-.3z"/>
      <circle cx="18.8" cy="5.2" r="1.5" fill="#fff"/>
    </symbol>

    <!-- NGINX -->
    <symbol id="nginx" viewBox="0 0 24 26">
      <path fill="#009639" d="M12 0l10.4 6v14L12 26 1.6 20V6z"/>
      <path fill="#fff" d="M8 18.5V8.2c0-.3.2-.5.5-.5h1.1c.3 0 .5.2.7.4l4.6 6.4V8.2c0-.3.2-.5.5-.5h.9c.3 0 .5.2.5.5v10.3c0 .3-.2.5-.5.5h-1c-.3 0-.5-.2-.7-.4l-4.6-6.5v6.4c0 .3-.2.5-.5.5h-1a.5.5 0 0 1-.5-.5z"/>
    </symbol>

    <!-- MySQL dolphin-ish -->
    <symbol id="mysql" viewBox="0 0 32 24">
      <path fill="#00758f" d="M2 18.5c1.6.3 3.2 0 4.6-.8 2.6-1.5 4-4.2 4.6-7 .5 2 .3 4-.2 6 1.6-1 2.6-2.7 3-4.5.5.9.7 2 .5 3 1.6-.6 2.6-2.1 3-3.7 1.2 1.9 3.3 3.1 5.5 3.3l1.6.1c.5 0 .9.4 1 .9.1.6-.3 1.1-.9 1.2l-2.6.3c-3 .3-6 1-8.8 2.2-2.6 1.1-5.7 1.1-8.3 0-1.4-.6-2.5-1.6-3-3z"/>
      <path fill="#f29111" d="M23.5 8.5c.8 0 1.5.7 1.5 1.5s-.7 1.5-1.5 1.5S22 10.8 22 10s.7-1.5 1.5-1.5z"/>
    </symbol>

    <!-- AWS S3 bucket -->
    <symbol id="s3" viewBox="0 0 24 24">
      <path fill="#3f8624" d="M4 4h16l-1.6 16.2c0 .5-.4.8-.9.8H6.5c-.5 0-.9-.3-.9-.8z"/>
      <path fill="#4caf50" d="M4 4h16l-.4 3.8c-2.2.9-5 1.4-7.6 1.4s-5.4-.5-7.6-1.4z"/>
      <ellipse cx="12" cy="4.2" rx="8" ry="1.9" fill="#63c368"/>
    </symbol>

    <!-- Datadog -->
    <symbol id="datadog" viewBox="0 0 24 24">
      <circle cx="12" cy="12" r="11.5" fill="#632ca6"/>
      <path fill="#fff" d="M17.6 6.6l-2 1.3-1.7-1.6-2.3 3.6-1.3-1L8 12.2l-1.4-.5-.9 1.6 2.6 1.1 1.2-2.4 1.3 1 2.4-3.7 1.4 1.3 2.3-1.5.3 4.6-4.4 4.2-4.6-1.7-.6 1.7 5.5 2 5.6-5.3z"/>
    </symbol>

    <!-- Gmail -->
    <symbol id="gmail" viewBox="0 0 24 18">
      <rect x="0" y="0" width="24" height="18" rx="2.2" fill="#fff" stroke="#e0e0e0"/>
      <path fill="#ea4335" d="M0 2.2C0 1 1 0 2.2 0H4v18H2.2A2.2 2.2 0 0 1 0 15.8z"/>
      <path fill="#34a853" d="M20 0h1.8C23 0 24 1 24 2.2v13.6c0 1.2-1 2.2-2.2 2.2H20z"/>
      <path fill="#fbbc04" d="M0 2.2L12 11 24 2.2v3L12 14 0 5.2z"/>
      <path fill="#c5221f" d="M0 2.2L12 11 4 5.2V18H2.2A2.2 2.2 0 0 1 0 15.8z" opacity=".25"/>
    </symbol>

    <!-- Sentry -->
    <symbol id="sentry" viewBox="0 0 24 24">
      <path fill="#362d59" d="M12 2.4c.6 0 1.2.3 1.5.9l7.8 13.5c.6 1-.1 2.3-1.3 2.3h-2.3a9.8 9.8 0 0 0-5.1-8.3l-1.5 2.6a6.8 6.8 0 0 1 3.4 5.7h-3a3.8 3.8 0 0 0-1.9-3.1l-1.5 2.6c.4.3.6.7.6 1.2H4.3c-1.2 0-1.9-1.3-1.3-2.3L10.5 3.3c.3-.6.9-.9 1.5-.9z"/>
    </symbol>

    <!-- Android robot -->
    <symbol id="android" viewBox="0 0 26 16">
      <g fill="#3ddc84">
        <path d="M6.8 2.2L5.6.4a.35.35 0 0 1 .6-.4l1.3 1.9a8.6 8.6 0 0 1 6.6 0L15.4 0a.35.35 0 0 1 .6.4l-1.2 1.8C17.4 3.7 19.4 6.6 19.7 10H1.5c.3-3.4 2.3-6.3 5.3-7.8z"/>
        <circle cx="6.4" cy="6.3" r=".9" fill="#fff"/><circle cx="14.8" cy="6.3" r=".9" fill="#fff"/>
      </g>
    </symbol>

    <!-- Google G -->
    <symbol id="google" viewBox="0 0 24 24">
      <path fill="#4285f4" d="M23 12.3c0-.8-.1-1.6-.2-2.3H12v4.5h6.2a5.3 5.3 0 0 1-2.3 3.5v2.9h3.7c2.2-2 3.4-5 3.4-8.6z"/>
      <path fill="#34a853" d="M12 23.5c3.1 0 5.7-1 7.6-2.8l-3.7-2.9c-1 .7-2.3 1.1-3.9 1.1-3 0-5.6-2-6.5-4.8H1.7v3C3.6 20.9 7.5 23.5 12 23.5z"/>
      <path fill="#fbbc05" d="M5.5 14.1a7 7 0 0 1 0-4.4v-3H1.7a11.5 11.5 0 0 0 0 10.4z"/>
      <path fill="#ea4335" d="M12 5.3c1.7 0 3.2.6 4.4 1.7l3.3-3.3C17.7 1.8 15.1.5 12 .5 7.5.5 3.6 3.1 1.7 6.7l3.8 3a7 7 0 0 1 6.5-4.4z"/>
    </symbol>

    <!-- Kakao -->
    <symbol id="kakao" viewBox="0 0 24 24">
      <rect width="24" height="24" rx="6" fill="#fee500"/>
      <path fill="#191600" d="M12 5.2c-3.9 0-7 2.4-7 5.4 0 1.9 1.3 3.6 3.2 4.6l-.8 3c-.1.3.2.5.5.3l3.5-2.3.6.1c3.9 0 7-2.4 7-5.4s-3.1-5.7-7-5.7z"/>
    </symbol>

    <!-- Firebase / FCM flame -->
    <symbol id="fcm" viewBox="0 0 24 24">
      <path fill="#ffa000" d="M3.9 18.3L6.6 1.6c.1-.6.9-.8 1.2-.2l2.8 5.3 1.1-2.1c.3-.6 1.1-.6 1.4 0l7 13.7z"/>
      <path fill="#f57c00" d="M14.5 11.5L12 7 3.9 18.3z"/>
      <path fill="#ffca28" d="M3.9 18.3l16.2 0-1.7-10.6c-.1-.5-.7-.7-1.1-.4z" opacity=".55"/>
    </symbol>
  </defs>

  <rect width="1400" height="700" fill="#ffffff"/>

  <!-- ══ CI/CD ══ -->
  <rect x="40" y="50" width="220" height="580" rx="14" fill="#fbfcfd" stroke="#dfe3e8" stroke-width="1.4"/>
  <text x="150" y="88" font-size="14" font-weight="700" fill="#57606a" text-anchor="middle" letter-spacing="1.5">CI / CD</text>

  <use href="#gh" x="126" y="130" width="48" height="48"/>
  <text x="150" y="198" font-size="14" font-weight="600" fill="#24292f" text-anchor="middle">GitHub</text>
  <text x="150" y="217" font-size="11" fill="#8b949e" text-anchor="middle">코드 저장소</text>

  <line x1="150" y1="235" x2="150" y2="268" stroke="#9aa3ad" stroke-width="1.6" marker-end="url(#ar)"/>

  <use href="#gh" x="132" y="280" width="36" height="36" opacity=".85"/>
  <text x="150" y="336" font-size="14" font-weight="600" fill="#1f6feb" text-anchor="middle">GitHub Actions</text>
  <text x="150" y="355" font-size="11" fill="#8b949e" text-anchor="middle">자동 테스트</text>

  <line x1="150" y1="372" x2="150" y2="405" stroke="#9aa3ad" stroke-width="1.6" marker-end="url(#ar)"/>

  <use href="#docker" x="126" y="415" width="48" height="36"/>
  <text x="150" y="475" font-size="14" font-weight="600" fill="#24292f" text-anchor="middle">Docker</text>
  <text x="150" y="494" font-size="11" fill="#8b949e" text-anchor="middle">이미지 빌드</text>

  <line x1="150" y1="511" x2="150" y2="544" stroke="#9aa3ad" stroke-width="1.6" marker-end="url(#ar)"/>

  <rect x="103" y="554" width="94" height="34" rx="6" fill="#24292f"/>
  <text x="150" y="577" font-size="15" font-weight="700" fill="#ffffff" text-anchor="middle">SSH</text>
  <text x="150" y="606" font-size="12" fill="#57606a" text-anchor="middle">EC2로 배포</text>

  <!-- ══ BACKEND ══ -->
  <rect x="300" y="50" width="480" height="580" rx="14" fill="#fbfcfd" stroke="#dfe3e8" stroke-width="1.4"/>
  <text x="540" y="88" font-size="14" font-weight="700" fill="#57606a" text-anchor="middle" letter-spacing="1.5">SERVER</text>

  <rect x="325" y="105" width="430" height="325" rx="12" fill="#f1f3f5"/>
  <rect x="337" y="117" width="46" height="46" rx="9" fill="#ff9900"/>
  <rect x="346" y="128" width="28" height="24" rx="3" fill="none" stroke="#fff" stroke-width="2.6"/>
  <text x="360" y="180" font-size="10.5" font-weight="600" fill="#57606a" text-anchor="middle">Amazon</text>
  <text x="360" y="194" font-size="11.5" font-weight="700" fill="#24292f" text-anchor="middle">EC2</text>

  <use href="#nginx" x="470" y="118" width="42" height="46"/>
  <text x="560" y="150" font-size="21" font-weight="700" fill="#009639">NGINX</text>
  <text x="560" y="172" font-size="11" fill="#8b949e">암호화 연결 처리</text>

  <rect x="337" y="205" width="406" height="212" rx="10" fill="#ffffff" stroke="#e4e8ec"/>
  <use href="#docker" x="349" y="219" width="44" height="33"/>
  <text x="371" y="272" font-size="11.5" font-weight="600" fill="#57606a" text-anchor="middle">docker-compose</text>

  <use href="#spring" x="368" y="300" width="52" height="52"/>
  <text x="394" y="372" font-size="12.5" font-weight="600" fill="#24292f" text-anchor="middle">Spring Boot 4</text>
  <text x="394" y="390" font-size="11" fill="#8b949e" text-anchor="middle">기능 처리</text>

  <use href="#spring" x="527" y="300" width="52" height="52"/>
  <text x="553" y="372" font-size="12.5" font-weight="600" fill="#24292f" text-anchor="middle">Spring Security</text>
  <text x="553" y="390" font-size="11" fill="#8b949e" text-anchor="middle">로그인 인증</text>

  <use href="#spring" x="672" y="300" width="52" height="52"/>
  <text x="698" y="372" font-size="12.5" font-weight="600" fill="#24292f" text-anchor="middle">Spring Data</text>
  <text x="698" y="390" font-size="11" fill="#8b949e" text-anchor="middle">데이터 연동</text>

  <line x1="440" y1="440" x2="440" y2="478" stroke="#9aa3ad" stroke-width="1.6" marker-end="url(#ar)"/>
  <line x1="640" y1="440" x2="640" y2="478" stroke="#9aa3ad" stroke-width="1.6" marker-end="url(#ar)"/>

  <use href="#gmail" x="414" y="492" width="52" height="39"/>
  <text x="440" y="551" font-size="12.5" font-weight="600" fill="#24292f" text-anchor="middle">Gmail SMTP</text>
  <text x="440" y="569" font-size="11" fill="#8b949e" text-anchor="middle">이메일 인증</text>

  <use href="#sentry" x="616" y="490" width="48" height="48"/>
  <text x="640" y="551" font-size="12.5" font-weight="600" fill="#24292f" text-anchor="middle">Sentry</text>
  <text x="640" y="569" font-size="11" fill="#8b949e" text-anchor="middle">오류 추적</text>

  <!-- ══ DATABASE ══ -->
  <rect x="820" y="50" width="270" height="230" rx="14" fill="#fbfcfd" stroke="#dfe3e8" stroke-width="1.4"/>
  <text x="955" y="88" font-size="14" font-weight="700" fill="#57606a" text-anchor="middle" letter-spacing="1.5">DATABASE</text>

  <use href="#docker" x="931" y="120" width="48" height="36"/>
  <use href="#mysql" x="921" y="180" width="68" height="51"/>
  <text x="955" y="252" font-size="13.5" font-weight="600" fill="#24292f" text-anchor="middle">MySQL 8.0</text>

  <!-- ══ STORAGE ══ -->
  <rect x="820" y="310" width="270" height="150" rx="14" fill="#fbfcfd" stroke="#dfe3e8" stroke-width="1.4"/>
  <text x="955" y="348" font-size="14" font-weight="700" fill="#57606a" text-anchor="middle" letter-spacing="1.5">STORAGE</text>
  <use href="#s3" x="931" y="368" width="48" height="48"/>
  <text x="955" y="437" font-size="13.5" font-weight="600" fill="#24292f" text-anchor="middle">AWS S3</text>

  <!-- ══ MONITORING ══ -->
  <rect x="820" y="490" width="270" height="140" rx="14" fill="#fbfcfd" stroke="#dfe3e8" stroke-width="1.4"/>
  <text x="955" y="528" font-size="14" font-weight="700" fill="#57606a" text-anchor="middle" letter-spacing="1.5">MONITORING</text>
  <use href="#datadog" x="931" y="546" width="48" height="48"/>
  <text x="955" y="614" font-size="13.5" font-weight="600" fill="#24292f" text-anchor="middle">Datadog</text>

  <!-- ══ CLIENT ══ -->
  <rect x="1130" y="50" width="230" height="580" rx="14" fill="#fbfcfd" stroke="#dfe3e8" stroke-width="1.4"/>
  <text x="1245" y="88" font-size="14" font-weight="700" fill="#57606a" text-anchor="middle" letter-spacing="1.5">CLIENT</text>

  <use href="#android" x="1211" y="230" width="68" height="42"/>
  <text x="1245" y="302" font-size="14" font-weight="600" fill="#24292f" text-anchor="middle">안드로이드 앱</text>

  <line x1="1245" y1="330" x2="1245" y2="372" stroke="#9aa3ad" stroke-width="1.6" marker-end="url(#ar)" marker-start="url(#ar)"/>
  <text x="1245" y="357" font-size="11" fill="#8b949e" text-anchor="middle">HTTPS</text>

  <use href="#google" x="1180" y="390" width="40" height="40"/>
  <use href="#kakao" x="1270" y="390" width="40" height="40"/>
  <text x="1245" y="452" font-size="13" font-weight="600" fill="#24292f" text-anchor="middle">소셜 로그인</text>

  <!-- ══ 연결선 ══ -->
  <path d="M780,318 L798,318 L798,205 L816,205" fill="none" stroke="#9aa3ad" stroke-width="1.6" marker-end="url(#ar)"/>
  <path d="M780,358 L798,358 L798,392 L816,392" fill="none" stroke="#9aa3ad" stroke-width="1.6" marker-end="url(#ar)"/>
  <path d="M780,560 L798,560 L798,572 L816,572" fill="none" stroke="#9aa3ad" stroke-width="1.6" marker-end="url(#ar)"/>
  <path d="M1128,251 L1108,251 L1108,26 L540,26 L540,46" fill="none" stroke="#9aa3ad" stroke-width="1.6" marker-end="url(#ar)"/>
  <text x="824" y="18" font-size="11.5" fill="#8b949e" text-anchor="middle">앱 요청 (HTTPS)</text>
  <path d="M260,590 L280,590 L280,300 L298,300" fill="none" stroke="#9aa3ad" stroke-width="1.6" marker-end="url(#ar)"/>
</svg>
